<svg id="Capa_1" enable-background="new 0 0 512.001 512.001" height="512" viewBox="0 0 512.001 512.001" width="512" xmlns="http://www.w3.org/2000/svg"><g><path d="m308.016 296.229h20.321c7.947 0 14.39 6.443 14.39 14.39v10.783c0 7.947-6.443 14.39-14.39 14.39h-20.321z" fill="#ffb09e"/><path d="m204.385 296.229h-20.321c-7.947 0-14.39 6.443-14.39 14.39v10.783c0 7.947 6.443 14.39 14.39 14.39h20.321z" fill="#ffb09e"/><path d="m345.151 452.349 54.869-18.768h54.045l50.633 17.319v53.599h-176.737v-28.102c0-10.866 6.908-20.531 17.19-24.048z" fill="#fe646f"/><path d="m457.041 434.601-51.89 17.75c-10.28 3.51-17.19 13.18-17.19 24.05v28.1h-60v-28.1c0-10.87 6.91-20.54 17.19-24.05l54.87-18.77h54.04z" fill="#fd4755"/><path d="m400.021 433.651 27.022 36.827 27.022-36.827v-45.108h-54.044z" fill="#ffb09e"/><path d="m380.674 317.353v56.267c0 23.654 19.175 42.829 42.829 42.829h7.079c23.654 0 42.829-19.175 42.829-42.829v-56.267c0-7.244-5.872-13.116-13.116-13.116h-66.505c-7.243 0-13.116 5.872-13.116 13.116z" fill="#ffcebf"/><path d="m437.041 415.971c-2.1.31-4.26.48-6.46.48h-7.08c-23.65 0-42.83-19.18-42.83-42.83v-56.27c0-7.24 5.88-13.11 13.12-13.11h20c-7.24 0-13.12 5.87-13.12 13.11v56.27c0 21.45 15.78 39.23 36.37 42.35z" fill="#ffb09e"/><path d="m380.674 332.011h18.591c7.086 0 13.859-2.918 18.726-8.069l12.72-13.461 8.262 14.409c2.525 4.404 7.214 7.12 12.29 7.12h22.148v-28.938c0-17.56-14.235-31.795-31.795-31.795h-29.146c-17.56 0-31.795 14.235-31.795 31.795v28.939z" fill="#68748f"/><path d="m412.471 271.281h20c-17.56 0-31.8 14.23-31.8 31.79v28.9c-.47.03-.94.04-1.41.04h-18.59v-28.94c0-17.56 14.239-31.79 31.8-31.79z" fill="#5d6980"/><path d="m167.25 452.349-54.869-18.768h-54.045l-50.634 17.319v53.599h176.738v-28.102c0-10.866-6.908-20.531-17.19-24.048z" fill="#aee69c"/><path d="m88.341 433.581-50.64 17.32v53.6h-30v-53.6l50.64-17.32z" fill="#89daa4"/><path d="m58.336 433.651 27.022 36.827 27.023-36.827v-45.108h-54.045z" fill="#ffb09e"/><path d="m38.989 317.353v56.267c0 23.654 19.175 42.829 42.829 42.829h7.079c23.654 0 42.829-19.175 42.829-42.829v-56.267c0-7.244-5.872-13.116-13.116-13.116h-66.505c-7.243 0-13.116 5.872-13.116 13.116z" fill="#ffcebf"/><path d="m95.36 415.971c-2.11.31-4.26.48-6.46.48h-7.08c-23.66 0-42.83-19.18-42.83-42.83v-56.27c0-7.24 5.87-13.11 13.11-13.11h20c-7.24 0-13.11 5.87-13.11 13.11v56.27c0 21.45 15.771 39.23 36.37 42.35z" fill="#ffb09e"/><path d="m38.989 332.011h18.591c7.086 0 13.859-2.918 18.726-8.069l12.72-13.461 8.262 14.409c2.525 4.404 7.214 7.12 12.29 7.12h22.148v-28.938c0-17.56-14.235-31.795-31.795-31.795h-29.146c-17.56 0-31.795 14.235-31.795 31.795v28.939z" fill="#68748f"/><path d="m70.781 271.281h20c-17.56 0-31.79 14.23-31.79 31.79v28.9c-.47.03-.94.04-1.41.04h-18.591v-28.94c0-17.56 14.231-31.79 31.791-31.79z" fill="#5d6980"/><path d="m347.712 434.256-61.315-20.973h-60.394l-61.315 20.973c-11.49 3.93-19.21 14.73-19.21 26.874v43.369h221.445v-43.369c0-12.143-7.721-22.943-19.211-26.874z" fill="#8ac9fe"/><path d="m256.001 413.281-61.31 20.98c-11.49 3.93-19.21 14.73-19.21 26.87v43.37h-30v-43.37c0-12.14 7.72-22.94 19.21-26.87l61.31-20.98z" fill="#60b7ff"/><path d="m226.004 413.283 29.118 32.923 31.275-32.923v-50.328h-60.393z" fill="#ffb09e"/><path d="m333.86 85.161c0 24.67-11.52 46.65-29.46 60.87-10.97 8.69-17.14 22.1-17.14 36.09v18.47c0 13.25-10.74 24-24 24h-14.12c-13.26 0-24-10.75-24-24v-18.47c0-14.08-6.32-27.46-17.32-36.23-18-14.35-29.48-36.53-29.27-61.39.34-41.67 34.11-75.99 75.77-76.98 43.751-1.03 79.54 34.12 79.54 77.64z" fill="#ffe177"/><path d="m266.201 224.411c-.96.12-1.94.18-2.94.18h-14.12c-13.26 0-24-10.75-24-24v-18.47c0-14.08-6.32-27.46-17.32-36.23-18-14.35-29.48-36.53-29.27-61.39.34-41.67 34.11-75.99 75.77-76.98 4.05-.1 8.03.12 11.91.62-37.86 4.91-67.36 37.42-67.68 76.36-.21 24.86 11.27 47.04 29.27 61.39 11 8.77 17.32 22.15 17.32 36.23v18.47c0 12.25 9.19 22.37 21.06 23.82z" fill="#ffd15b"/><path d="m287.261 189.381v11.21c0 13.25-10.74 24-24 24h-14.12c-13.26 0-24-10.75-24-24v-11.21z" fill="#eaf6ff"/><path d="m266.201 224.411c-.96.12-1.94.18-2.94.18h-14.12c-13.26 0-24-10.75-24-24v-11.21h20v11.21c0 12.25 9.19 22.37 21.06 23.82z" fill="#d8ecfe"/><path d="m204.385 283.402v62.877c0 26.433 21.428 47.86 47.86 47.86h7.911c26.433 0 47.86-21.428 47.86-47.86v-62.877c0-8.095-6.562-14.657-14.657-14.657h-74.318c-8.094 0-14.656 6.562-14.656 14.657z" fill="#ffcebf"/><path d="m266.201 393.771c-1.98.24-3.99.37-6.04.37h-7.92c-26.43 0-47.86-21.43-47.86-47.86v-62.88c0-8.09 6.57-14.66 14.66-14.66h20c-8.09 0-14.66 6.57-14.66 14.66v62.88c0 24.39 18.239 44.51 41.82 47.49z" fill="#ffb09e"/><path d="m318.571 296.229h-13.826c-15.081 0-28.407-9.815-32.88-24.217l-3.172-10.213-11.287 18.169c-6.282 10.112-17.342 16.261-29.246 16.261h-34.33v-28.104c0-22.818 18.498-41.316 41.316-41.316h42.11c22.818 0 41.316 18.498 41.316 41.316v28.104z" fill="#68748f"/><path d="m235.151 226.811h30c-22.82 0-41.32 18.5-41.32 41.31v28.11h-30v-28.11c0-22.81 18.5-41.31 41.32-41.31z" fill="#5d6980"/><g><path d="m380.349 62.027c-4.143 0-7.5 3.358-7.5 7.5s3.357 7.5 7.5 7.5h21.062c4.143 0 7.5-3.358 7.5-7.5s-3.357-7.5-7.5-7.5z"/><path d="m381.883 42.46 19.317-10.268c3.657-1.944 5.046-6.485 3.103-10.143-1.944-3.656-6.48-5.047-10.144-3.103l-19.316 10.267c-3.657 1.944-5.046 6.485-3.103 10.143 1.348 2.537 6.011 5.395 10.143 3.104z"/><path d="m374.842 110.041 19.316 10.267c3.808 1.833 7.189.799 10.144-3.103 1.943-3.658.555-8.199-3.103-10.143l-19.316-10.267c-3.659-1.944-8.199-.555-10.144 3.103-1.943 3.658-.554 8.199 3.103 10.143z"/><path d="m110.59 77.027h21.063c4.142 0 7.5-3.358 7.5-7.5s-3.358-7.5-7.5-7.5h-21.063c-4.142 0-7.5 3.358-7.5 7.5s3.358 7.5 7.5 7.5z"/><path d="m110.802 32.192 19.316 10.267c3.808 1.833 7.189.799 10.143-3.103 1.944-3.658.555-8.199-3.103-10.143l-19.316-10.267c-3.657-1.943-8.199-.555-10.143 3.103-1.944 3.659-.555 8.2 3.103 10.143z"/><path d="m130.118 96.796-19.316 10.267c-3.658 1.944-5.047 6.485-3.103 10.143 2.954 3.901 6.335 4.936 10.143 3.103l19.316-10.267c3.658-1.944 5.047-6.485 3.103-10.143-1.944-3.659-6.485-5.048-10.143-3.103z"/><path d="m506.927 443.805-45.566-15.585v-14.977c11.766-9.221 19.35-23.548 19.35-39.621l.001-70.549c0-21.667-17.628-39.295-39.295-39.295h-29.147c-21.668 0-39.296 17.628-39.296 39.295l-.004 70.549c0 16.074 7.583 30.401 19.351 39.622v14.977l-27.017 9.242c-4.044-4.612-9.284-8.218-15.365-10.298l-56.238-19.244v-17.794c14.448-11.144 22.31-28.675 21.62-46.836h12.816c12.07 0 21.891-9.82 21.891-21.89v-10.783c0-13.859-12.352-21.054-24.156-21.89v-20.604c0-23.334-16.461-42.886-38.378-47.681 4.414-5.422 7.066-12.332 7.066-19.853v-3.713h8.234c4.143 0 7.5-3.358 7.5-7.5s-3.357-7.5-7.5-7.5h-8.227c.073-11.736 5.4-22.924 14.292-29.969 16.106-12.763 27.055-30.855 30.833-50.941.766-4.071-1.914-7.991-5.985-8.757-4.056-.766-7.991 1.913-8.757 5.984-3.109 16.537-12.133 31.438-25.406 41.957-12.638 10.012-19.906 25.209-19.977 41.726h-16.066v-96.718c0-4.428 3.603-8.031 8.031-8.031s8.031 3.603 8.031 8.031v15.531c0 4.142 3.357 7.5 7.5 7.5s7.5-3.358 7.5-7.5v-15.531c0-12.7-10.332-23.031-23.031-23.031-5.979 0-11.433 2.292-15.531 6.041-4.098-3.75-9.552-6.041-15.531-6.041-12.699 0-23.031 10.332-23.031 23.031v15.531c0 4.142 3.358 7.5 7.5 7.5s7.5-3.358 7.5-7.5v-15.531c0-4.428 3.603-8.031 8.031-8.031s8.031 3.603 8.031 8.031v96.719h-16.067c-.072-16.451-7.399-31.694-20.138-41.851-16.99-13.545-26.629-33.76-26.446-55.465.306-37.457 31.012-68.654 68.447-69.543 32.841-.791 62.23 21.782 69.903 53.629.971 4.026 5.019 6.502 9.048 5.535 4.026-.97 6.505-5.021 5.534-9.048-4.479-18.595-15.299-35.347-30.464-47.17-15.431-12.032-34.743-18.399-54.376-17.942-22.105.525-42.898 9.571-58.547 25.472-15.647 15.898-24.364 36.833-24.544 58.942-.223 26.344 11.475 50.88 32.094 67.318 9.149 7.295 14.417 18.263 14.488 30.122h-7.827c-4.143 0-7.5 3.358-7.5 7.5s3.357 7.5 7.5 7.5h7.834v3.713c0 7.52 2.652 14.431 7.066 19.853-21.917 4.795-38.377 24.347-38.377 47.68v20.604c-11.804.836-24.156 8.031-24.156 21.89v10.783c0 12.07 9.82 21.89 21.89 21.89h12.817c-.69 18.161 7.172 35.691 21.62 46.836v17.794l-56.237 19.244c-6.081 2.08-11.322 5.686-15.366 10.298l-27.016-9.242v-14.978c11.767-9.221 19.35-23.548 19.35-39.622v-70.55c0-19.811-14.808-36.57-34.445-38.984-4.115-.51-7.854 2.418-8.359 6.529s2.417 7.854 6.529 8.359c12.128 1.491 21.275 11.85 21.275 24.096v21.44h-14.65c-2.384 0-4.6-1.283-5.783-3.349l-8.26-14.41c-2.837-5.108-7.495-4.958-11.958-1.422l-12.719 13.458c-3.439 3.637-8.279 5.723-13.28 5.723h-11.09v-21.44c0-13.394 10.896-24.29 24.29-24.29 3.943-.433 7.9-2.897 7.9-7.5s-3.957-7.067-7.9-7.5c-21.665 0-39.29 17.625-39.29 39.29v70.55c0 16.074 7.583 30.401 19.35 39.622v14.977l-45.568 15.586c-3.034 1.038-5.073 3.89-5.073 7.096v53.6c0 4.142 3.358 7.5 7.5 7.5h403c4.143 0 7.5-3.358 7.5-7.5s-3.357-7.5-7.5-7.5h-36.28v-35.87c0-3.57-.534-7.045-1.527-10.343l24.3-8.313 23.803 32.44c4.031 4.084 8.063 4.084 12.094 0l23.802-32.439 40.308 13.786v40.739h-53.81c-4.143 0-7.5 3.358-7.5 7.5s3.357 7.5 7.5 7.5h61.31c4.143 0 7.5-3.358 7.5-7.5v-53.6c.001-3.207-2.038-6.059-5.073-7.096zm-191.606-140.076h12.816c3.8 0 6.891 3.091 6.891 6.89v10.783c0 3.799-3.091 6.89-6.891 6.89h-12.816zm-118.64 24.562h-12.817c-3.799 0-6.89-3.091-6.89-6.89v-10.783c0-3.799 3.091-6.89 6.89-6.89h12.817zm-150.39 45.33v-34.11h11.09c12.034 0 22.94-7.188 29.965-16.539 3.738 8.934 11.76 16.539 22.035 16.539h14.65v34.11c-.001 46.98-77.74 46.98-77.74 0zm58.39 47.714v9.858l-19.523 26.607-19.518-26.6v-9.865c10.942 3.675 28.099 3.675 39.041 0zm33.099 39.796v35.87h-122.779v-40.739l40.308-13.786 23.802 32.439c4.031 4.084 8.063 4.084 12.094 0l23.803-32.44 24.299 8.313c-.993 3.298-1.527 6.773-1.527 10.343zm141.78-264.253v3.713c0 9.098-7.402 16.5-16.5 16.5h-14.12c-9.098 0-16.5-7.402-16.5-16.5v-3.713zm-78.431 71.246c0-18.646 15.17-33.816 33.816-33.816h42.109c18.646 0 33.816 15.17 33.816 33.816v20.604c-18.13.894-32.275-10.93-35.217-29.155-1.967-6.332-10.253-7.011-13.533-1.732-6.491 13.227-17.533 30.888-34.162 30.888h-26.83v-20.605zm10.552 78.157.004-42.552h16.275c16.309 0 30.948-10.318 38.481-24.415 6.181 13.529 19.009 22.701 33.875 24.18l.005 42.787c0 53.58-88.64 53.256-88.64 0zm67.02 52.089v11.916l-23.581 24.823-21.819-24.67v-12.069c12.641 4.562 32.758 4.562 45.4 0zm80.519 98.631h-206.44v-35.87c0-8.935 5.682-16.881 14.139-19.774l56.578-19.361 25.807 29.179c2.922 3.303 8.033 3.379 11.056.197l27.964-29.437 56.759 19.422c8.456 2.893 14.138 10.839 14.138 19.774v35.87zm28.754-193.929c0-13.396 10.899-24.295 24.296-24.295h29.146c13.396 0 24.295 10.899 24.295 24.295v21.438h-14.648c-5.796 0-12.599-13.717-14.045-17.76-2.544-4.436-7.068-8-11.958-1.42-5.186 6.977-16.867 19.18-25.995 19.18h-11.091zm58.387 128.129-19.518 26.6-19.522-26.607v-9.858c10.941 3.674 28.099 3.674 39.04 0zm-15.981-22.25c-20.74 1.463-42.41-12.555-42.41-35.33v-34.11h11.095c12.034 0 22.938-7.187 29.963-16.539 3.739 8.932 11.762 16.539 22.035 16.539h14.647v34.11c.001 19.481-15.848 35.33-35.33 35.33z"/><path d="m256.001 361.597c17 .003 23.594-5.999 23.594-21.048 0-4.142-3.357-7.5-7.5-7.5s-7.5 3.358-7.5 7.5c0 8.12-17.189 8.12-17.189 0 0-4.142-3.358-7.5-7.5-7.5s-7.5 3.358-7.5 7.5c0 11.492 7.345 21.051 23.595 21.048z"/></g></g></svg>