<svg id="Filled_stroke_Cut_Ex" height="512" viewBox="0 0 512 512" width="512" xmlns="http://www.w3.org/2000/svg" data-name="Filled stroke Cut Ex"><g><g><path d="m228 24h-56a60 60 0 0 0 -60 60v196h176v-196a60 60 0 0 0 -60-60z" fill="#f15a57"/><path d="m248 296h-96l16-80h64z" fill="#ffd4cf"/><path d="m232 216h-64l-3.253 16.263 19.1 9.548a36.2 36.2 0 0 0 16.1 3.8 36.183 36.183 0 0 0 16.264-3.883l19.009-9.628z" fill="#fbb8b0"/><path d="m276 112h-12v16h-28a59.994 59.994 0 0 1 -53.08-32h-46.92v16h-12a20 20 0 0 0 -20 20v8a20 20 0 0 0 20 20h12v21.459a30 30 0 0 0 16.584 26.833l38.416 19.208a20 20 0 0 0 17.979-.045l38.575-19.534a30 30 0 0 0 16.446-26.765v-21.156h12a20 20 0 0 0 20-20v-8a20 20 0 0 0 -20-20z" fill="#ffd4cf"/><g fill="#fdc069"><path d="m183.962 48-110.852 64a16 16 0 0 0 16 27.713l14.91-8.608a20 20 0 0 1 19.98-19.105h12v.641l63.962-36.928 12.784-25.857z"/><path d="m56 468v-150.264a20 20 0 0 1 12.82-18.667l91.18-35.069h80l104 40v184h-268a20 20 0 0 1 -20-20z"/></g></g><g><g><path d="m152 304h304v184h-304z" fill="#ebf9ff"/><path d="m152 256h304v48h-304z" fill="#25b1fa"/><path d="m344 336h80v120h-80z" fill="#fcfeff"/></g><path d="m184 336h128v120h-128z" fill="#fcfeff"/></g><path d="m168 424h-32v64h96a64 64 0 0 0 -64-64z" fill="#ffd4cf"/><g><path d="m416 168h-64l8 48h24 24z" fill="#f15a57"/><circle cx="384" cy="136" fill="#fdc069" r="48"/><g><path d="m160 128h16v16h-16z"/><path d="m224 180h-16c0 1.41-3.037 4-8 4s-8-2.59-8-4h-16c0 11.215 10.542 20 24 20s24-8.785 24-20z"/><path d="m448 480h-192v16h200a8 8 0 0 0 8-8v-128h-16z"/><path d="m456 248h-160v-88.423a27.906 27.906 0 0 0 8-19.577v-8a27.906 27.906 0 0 0 -8-19.577v-28.423a68.077 68.077 0 0 0 -68-68h-56a68.077 68.077 0 0 0 -68 68v.928l-34.89 20.144a24 24 0 0 0 24 41.569l3.292-1.9a28.046 28.046 0 0 0 27.598 23.259h4v13.459a37.792 37.792 0 0 0 21.006 33.988l9.951 4.976-5.516 27.577h-1.441a8 8 0 0 0 -8 8v5.306l-24 9.231v-86.537h-16v92.691l-38.067 14.642a28.165 28.165 0 0 0 -17.949 26.133v18.534h16v-18.534a12.072 12.072 0 0 1 7.692-11.2l72.324-27.817v121.551h16v-88h288v32h16v-88a8 8 0 0 0 -8-8zm-209.442 0-5.558-27.794 10.167-5.149a37.82 37.82 0 0 0 20.833-33.901v-13.156h4a28.224 28.224 0 0 0 4-.285v80.285zm41.442-116v8a12.013 12.013 0 0 1 -12 12h-4v-32h4a12.013 12.013 0 0 1 12 12zm-116-100h56a52.059 52.059 0 0 1 52 52v20.285a28.224 28.224 0 0 0 -4-.285h-12a8 8 0 0 0 -8 8v8h-20a52.054 52.054 0 0 1 -46.625-28.938l14.586-8.421a8 8 0 0 0 3.172-3.382l12.784-25.859a8 8 0 0 0 -6.656-11.529l-28.785-1.856a7.991 7.991 0 0 0 -4.515 1.055l-59.227 34.197a52.084 52.084 0 0 1 51.266-43.267zm-86.889 100.785a8 8 0 0 1 -8-13.857l108.753-62.789 14.392.928-6.392 12.933-58.9 34h-10.964a28.048 28.048 0 0 0 -27.383 22.141zm38.889 19.215a12.013 12.013 0 0 1 -12-12v-8a12.013 12.013 0 0 1 12-12h4v32zm20 29.459v-64.2l31.5-18.185a68.1 68.1 0 0 0 48.5 35.86v9.066h16v-8h16v45.156a21.9 21.9 0 0 1 -12.062 19.627l-38.574 19.533a12.054 12.054 0 0 1 -10.788.028l-38.415-19.207a21.881 21.881 0 0 1 -12.161-19.678zm29.79 46.381 13.631 6.815a28.118 28.118 0 0 0 25.171-.064l13.591-6.883 4.059 20.292h-60.484zm-13.79 68.16v-32h288v32z"/><path d="m176 272h16v16h-16z"/><path d="m208 272h16v16h-16z"/><path d="m416 272h16v16h-16z"/><path d="m424 464a8 8 0 0 0 8-8v-120a8 8 0 0 0 -8-8h-80a8 8 0 0 0 -8 8v120a8 8 0 0 0 8 8zm-30.385-68 22.385-33.578v67.156zm15.437 52h-50.1l25.048-37.578zm-25.052-66.422-25.052-37.578h50.1zm-9.615 14.422-22.385 33.578v-67.156z"/><path d="m248 448v16h64a8 8 0 0 0 8-8v-120a8 8 0 0 0 -8-8h-128a8 8 0 0 0 -8 8v64h16v-45.534l44.3 41.534-17.775 16.664 10.944 11.672 18.531-17.37 43.77 41.034zm-43.769-104h87.539l-43.77 41.034zm99.769 10.466v83.068l-44.3-41.534z"/><path d="m168 416h-72v16h32v47.73h-52.016a12.013 12.013 0 0 1 -12-12v-115.73h-16v115.73a28.031 28.031 0 0 0 28 28h4.016v.27h152a8 8 0 0 0 8-8 72.081 72.081 0 0 0 -72-72zm-24 64v-48h24a56.086 56.086 0 0 1 55.43 48z"/><path d="m384 96a40.071 40.071 0 0 1 37.726 26.666l15.086-5.332a56 56 0 1 0 -91.517 59.1l6.814 40.88a8 8 0 0 0 7.891 6.686h48a8 8 0 0 0 7.891-6.685l6.814-40.88a55.847 55.847 0 0 0 17.295-40.435h-16a40 40 0 1 1 -40-40zm20.54 92.1-3.317 19.9h-34.446l-3.317-19.9a56.025 56.025 0 0 0 41.08 0z"/><path d="m376 48h16v16h-16z"/><path d="m325.657 66.343h16v16h-16z" transform="matrix(.707 -.707 .707 .707 45.157 257.706)"/><path d="m426.343 66.343h16v16h-16z" transform="matrix(.707 -.707 .707 .707 74.648 328.902)"/></g></g></g></svg>