<svg id="Layer_1" enable-background="new 0 0 256 256" height="512" viewBox="0 0 256 256" width="512" xmlns="http://www.w3.org/2000/svg"><g><g><g><path d="m92.277 72.752h71.445v104.415h-71.445z" fill="#f2e1d6"/></g><g><path d="m248.08 4.5v95.8h-27.91c0-4.31-3.5-7.81-7.82-7.81-4.31 0-7.81 3.5-7.81 7.81h-27.91v-95.8z" fill="#13bf6d"/></g><g><path d="m71.55 52.4c0 4.32 3.5 7.82 7.82 7.82v40.08h-71.45v-95.8h71.45v40.09c-4.32 0-7.82 3.5-7.82 7.81z" fill="#fc5d3d"/></g><g><path d="m248.08 155.7v95.8h-71.45v-40.09c4.32 0 7.82-3.5 7.82-7.81 0-4.32-3.5-7.82-7.82-7.82v-40.08z" fill="#72c1e8"/></g><g><path d="m71.55 203.6c0 4.31 3.5 7.81 7.82 7.81v40.09h-71.45v-95.8h71.45v40.08c-4.32 0-7.82 3.5-7.82 7.82z" fill="#f0c020"/></g><g><path d="m92.277 72.752h71.445v104.415h-71.445z" fill="#f2e1d6"/></g><g><path d="m103.16 105.442h49.68v23.83h-49.68z" fill="#13bf6d"/></g><g><path d="m103.16 152.084h18.745v11.053h-18.745z" fill="#f0c020"/></g><g><path d="m134.095 152.084h18.745v11.053h-18.745z" fill="#72c1e8"/></g><g><path d="m103.16 84.581h49.68v11.257h-49.68z" fill="#fc5d3d"/></g><g><path d="m79.37 44.59c-4.32 0-7.82 3.5-7.82 7.81 0 4.32 3.5 7.82 7.82 7.82 4.31 0 7.81-3.5 7.81-7.82 0-4.31-3.5-7.81-7.81-7.81z" fill="#fff"/></g><g><path d="m79.37 195.78c-4.32 0-7.82 3.5-7.82 7.82 0 4.31 3.5 7.81 7.82 7.81 4.31 0 7.81-3.5 7.81-7.81 0-4.32-3.5-7.82-7.81-7.82z" fill="#fff"/></g><g><path d="m28.478 40.912h30.333v30.333h-30.333z" fill="#fff"/></g><g><path d="m58.812 227.75h-30.334l15.167-32.68z" fill="#fff"/></g><g><circle cx="212.355" cy="56.078" fill="#fff" r="15.167"/></g><g><path d="m212.355 194.312 5.556 11.256 12.422 1.806-8.989 8.762 2.122 12.372-11.111-5.841-11.111 5.841 2.122-12.372-8.989-8.762 12.422-1.806z" fill="#fff"/></g><g><path d="m103.16 143.18h49.68c1.38 0 2.5-1.12 2.5-2.5s-1.12-2.5-2.5-2.5h-49.68c-1.38 0-2.5 1.12-2.5 2.5s1.12 2.5 2.5 2.5z"/><path d="m120.78 117.2c-1.37 0-2.5 1.12-2.5 2.5v.34c0 1.38 1.13 2.5 2.5 2.5 1.38 0 2.5-1.12 2.5-2.5v-.34c0-1.38-1.12-2.5-2.5-2.5z"/><path d="m128 117.2c-1.38 0-2.5 1.12-2.5 2.5v.34c0 1.38 1.12 2.5 2.5 2.5s2.5-1.12 2.5-2.5v-.34c0-1.38-1.12-2.5-2.5-2.5z"/><path d="m135.22 117.2c-1.38 0-2.5 1.12-2.5 2.5v.34c0 1.38 1.12 2.5 2.5 2.5 1.37 0 2.5-1.12 2.5-2.5v-.34c0-1.38-1.13-2.5-2.5-2.5z"/><circle cx="7.92" cy="72.83" r="2.5"/><path d="m28.48 22.17h30.33c1.38 0 2.5-1.12 2.5-2.5s-1.12-2.5-2.5-2.5h-30.33c-1.38 0-2.5 1.12-2.5 2.5s1.12 2.5 2.5 2.5z"/><path d="m227.52 22.17c1.38 0 2.5-1.13 2.5-2.5 0-1.38-1.12-2.5-2.5-2.5h-30.33c-1.38 0-2.5 1.12-2.5 2.5 0 1.37 1.12 2.5 2.5 2.5z"/><path d="m28.48 177.04h30.33c1.38 0 2.5-1.12 2.5-2.5s-1.12-2.5-2.5-2.5h-30.33c-1.38 0-2.5 1.12-2.5 2.5s1.12 2.5 2.5 2.5z"/><path d="m194.689 174.54c0 1.38 1.12 2.5 2.5 2.5h30.33c1.38 0 2.5-1.12 2.5-2.5s-1.12-2.5-2.5-2.5h-30.33c-1.379 0-2.5 1.12-2.5 2.5z"/><path d="m248.08 2h-71.45c-1.364 0-2.5 1.107-2.5 2.5v95.8c0 1.393 1.136 2.5 2.5 2.5h25.729c.921 3.683 3.819 6.581 7.497 7.502l-.007 4.558h-43.63v-42.11c0-1.363-1.105-2.5-2.5-2.5h-32.24v-17.85c0-1.38-1.137-2.5-2.5-2.5h-39.619c-.922-3.674-3.816-6.568-7.49-7.49v-37.91c0-1.367-1.111-2.5-2.5-2.5h-71.45c-1.367 0-2.5 1.111-2.5 2.5v58.33c0 1.38 1.12 2.5 2.5 2.5s2.5-1.12 2.5-2.5v-.01-55.82h66.45v35.409c-4.484 1.122-7.82 5.173-7.82 9.991 0 4.826 3.336 8.879 7.82 10.001v35.399h-66.45v-14.97c0-1.38-1.12-2.5-2.5-2.5s-2.5 1.12-2.5 2.5v17.47c0 1.367 1.111 2.5 2.5 2.5h71.45c1.395 0 2.5-1.122 2.5-2.5v-37.9c3.675-.922 6.57-3.819 7.491-7.5h37.119v15.35h-34.2c-1.33 0-2.5 1.084-2.5 2.5v65.86c0 1.38 1.12 2.5 2.5 2.5s2.5-1.12 2.5-2.5v-63.36h31.7v6.83h-23.32c-1.366 0-2.5 1.111-2.5 2.5v11.26c0 1.392 1.148 2.5 2.5 2.5h49.68c1.409 0 2.5-1.155 2.5-2.5v-11.26c0-1.359-1.089-2.5-2.5-2.5h-21.36v-6.83h29.74v39.61h-5.88v-9.42c0-1.374-1.101-2.5-2.5-2.5h-49.68c-1.366 0-2.5 1.111-2.5 2.5v23.83c0 1.367 1.112 2.5 2.5 2.5h49.68c1.382 0 2.5-1.108 2.5-2.5v-9.41h5.88v54.81h-15.25v-9.03h6.87c1.409 0 2.5-1.155 2.5-2.5v-11.06c0-1.345-1.09-2.5-2.5-2.5h-18.74c-1.328 0-2.5 1.075-2.5 2.5v11.06c0 1.411 1.143 2.5 2.5 2.5h6.87v9.03h-25.7v-9.03h6.63c1.408 0 2.51-1.144 2.51-2.5v-11.06c0-1.35-1.121-2.5-2.51-2.5h-18.74c-1.36 0-2.5 1.118-2.5 2.5v11.06c0 1.395 1.151 2.5 2.5 2.5h7.11v9.03h-15.49v-16.06c0-1.38-1.12-2.5-2.5-2.5s-2.5 1.12-2.5 2.5v18.56c0 1.413 1.151 2.5 2.5 2.5h17.99v21.43h-20.909c-.921-3.681-3.816-6.578-7.491-7.5v-37.9c0-1.343-1.084-2.5-2.5-2.5h-71.45c-1.39 0-2.5 1.134-2.5 2.5v95.8c0 1.366 1.111 2.5 2.5 2.5h13.82c1.38 0 2.5-1.12 2.5-2.5s-1.12-2.5-2.5-2.5h-11.32v-90.8h66.45v35.38c-4.55 1.136-7.82 5.236-7.82 10.02 0 4.713 3.212 8.859 7.82 10v35.4h-35.13c-1.38 0-2.5 1.12-2.5 2.5s1.12 2.5 2.5 2.5h37.63c1.38 0 2.5-1.106 2.5-2.5v-37.91c3.674-.922 6.568-3.816 7.49-7.49h23.41c1.366 0 2.5-1.096 2.5-2.5v-23.93h25.7v23.93c0 1.374 1.12 2.5 2.5 2.5h23.17c.922 3.673 3.817 6.568 7.49 7.49v37.91c0 1.376 1.12 2.5 2.5 2.5h71.45c1.39 0 2.5-1.117 2.5-2.5v-95.8c0-1.367-1.097-2.5-2.5-2.5h-13.44c-1.38 0-2.5 1.12-2.5 2.5s1.12 2.5 2.5 2.5h10.94v90.8h-66.45v-35.39c4.654-1.163 7.82-5.354 7.82-10.01 0-4.731-3.229-8.873-7.82-10.02v-35.38h35.51c1.38 0 2.5-1.12 2.5-2.5s-1.12-2.5-2.5-2.5h-38.01c-1.37 0-2.5 1.114-2.5 2.5v37.9c-3.675.922-6.57 3.82-7.492 7.5h-20.668v-21.43h17.75c1.384 0 2.5-1.126 2.5-2.5v-57.31h46.13c1.351 0 2.5-1.087 2.5-2.5v-7.059c3.682-.921 6.58-3.819 7.501-7.501h25.729c1.393 0 2.5-1.119 2.5-2.5v-45.8c0-1.38-1.12-2.5-2.5-2.5s-2.5 1.12-2.5 2.5v43.3h-23.221c-1.135-4.577-5.269-7.81-10.01-7.81-4.632 0-8.842 3.136-10 7.81h-23.22v-90.8h66.45v27.5c0 1.38 1.12 2.5 2.5 2.5s2.5-1.12 2.5-2.5v-30c.001-1.382-1.107-2.5-2.499-2.5zm-168.71 55.72c-2.93-.01-5.31-2.39-5.32-5.32.01-2.92 2.39-5.31 5.32-5.31 2.92 0 5.31 2.39 5.31 5.31 0 2.93-2.39 5.31-5.31 5.32zm70.97 35.62h-44.68v-6.26h44.68zm0 33.43h-44.68v-18.83h44.68zm-13.75 27.81h13.75v6.06h-13.75zm-30.93 0h13.75v6.06h-13.75zm-26.29 54.33c-2.93-.01-5.31-2.39-5.32-5.31.01-2.93 2.39-5.32 5.32-5.32 2.92 0 5.31 2.39 5.31 5.32 0 2.92-2.39 5.3-5.31 5.31zm97.26-10.63c2.93.01 5.31 2.39 5.32 5.32-.011 2.92-2.391 5.31-5.32 5.31-2.92 0-5.311-2.39-5.311-5.31 0-2.93 2.391-5.32 5.311-5.32zm41.04-97.98c-.01 2.93-2.39 5.32-5.32 5.32-2.92 0-5.3-2.39-5.31-5.32.01-2.92 2.39-5.3 5.31-5.31 2.93.01 5.31 2.39 5.32 5.31z"/><circle cx="248.08" cy="44.5" r="2.5"/><circle cx="31.74" cy="251.5" r="2.5"/><circle cx="224.64" cy="155.7" r="2.5"/><circle cx="92.28" cy="148.61" r="2.5"/><path d="m25.979 71.245c0 1.381 1.119 2.5 2.5 2.5h30.333c1.381 0 2.5-1.119 2.5-2.5v-30.333c0-1.381-1.119-2.5-2.5-2.5h-30.333c-1.381 0-2.5 1.119-2.5 2.5zm5-27.833h25.333v25.333h-25.333z"/><path d="m61.079 226.698-15.167-32.68c-.894-1.926-3.641-1.927-4.535 0l-15.167 32.68c-.768 1.653.441 3.552 2.268 3.552h30.333c1.823 0 3.037-1.896 2.268-3.552zm-28.684-1.448 11.25-24.241 11.25 24.241z"/><path d="m212.354 73.745c9.741 0 17.667-7.925 17.667-17.667 0-9.741-7.926-17.667-17.667-17.667s-17.666 7.925-17.666 17.667 7.925 17.667 17.666 17.667zm0-30.333c6.984 0 12.667 5.682 12.667 12.667s-5.683 12.667-12.667 12.667-12.666-5.683-12.666-12.667 5.682-12.667 12.666-12.667z"/><path d="m230.692 204.899-11.122-1.616-4.973-10.078c-.915-1.854-3.567-1.856-4.484 0l-4.974 10.078-11.122 1.616c-2.047.297-2.868 2.82-1.386 4.264l8.048 7.845-1.899 11.077c-.351 2.045 1.806 3.595 3.627 2.636l9.948-5.23 9.947 5.23c1.824.961 3.978-.592 3.627-2.636l-1.899-11.077 8.048-7.845c1.481-1.442.662-3.966-1.386-4.264zm-11.093 9.447c-.589.574-.858 1.402-.719 2.213l1.266 7.379-6.627-3.484c-.729-.383-1.598-.383-2.326 0l-6.628 3.484 1.266-7.38c.14-.811-.13-1.639-.719-2.213l-5.362-5.227 7.41-1.077c.814-.119 1.519-.63 1.883-1.368l3.313-6.714 3.313 6.714c.364.738 1.068 1.249 1.883 1.368l7.41 1.077z"/></g></g><g><path d="m69.667 92.709h-2.875c-1.381 0-2.5-1.119-2.5-2.5s1.119-2.5 2.5-2.5h2.875c1.381 0 2.5 1.119 2.5 2.5s-1.12 2.5-2.5 2.5zm-12.876 0h-39.791c-1.381 0-2.5-1.119-2.5-2.5v-76.209c0-1.381 1.119-2.5 2.5-2.5s2.5 1.119 2.5 2.5v73.709h37.291c1.381 0 2.5 1.119 2.5 2.5s-1.119 2.5-2.5 2.5z" fill="#ffcbc2"/></g><g><path d="m69.667 244.205h-2.875c-1.381 0-2.5-1.119-2.5-2.5s1.119-2.5 2.5-2.5h2.875c1.381 0 2.5 1.119 2.5 2.5s-1.12 2.5-2.5 2.5zm-12.876 0h-39.791c-1.381 0-2.5-1.119-2.5-2.5v-76.209c0-1.381 1.119-2.5 2.5-2.5s2.5 1.119 2.5 2.5v73.709h37.291c1.381 0 2.5 1.119 2.5 2.5s-1.119 2.5-2.5 2.5z" fill="#f9e5af"/></g><g><g><path d="m238.688 244.205h-52.667c-1.381 0-2.5-1.119-2.5-2.5v-23.705c0-1.381 1.119-2.5 2.5-2.5s2.5 1.119 2.5 2.5v21.205h50.167c1.381 0 2.5 1.119 2.5 2.5s-1.119 2.5-2.5 2.5z" fill="#c5e5ff"/></g><g><path d="m186.021 191c-1.381 0-2.5-1.119-2.5-2.5v-23.004c0-1.381 1.119-2.5 2.5-2.5s2.5 1.119 2.5 2.5v23.004c0 1.381-1.119 2.5-2.5 2.5z" fill="#c5e5ff"/></g></g><g><g><path d="m238.688 93.01h-11.167c-1.381 0-2.5-1.119-2.5-2.5s1.119-2.5 2.5-2.5h11.167c1.381 0 2.5 1.119 2.5 2.5s-1.119 2.5-2.5 2.5z" fill="#76ffba"/></g><g><path d="m197.188 93.01h-11.167c-1.381 0-2.5-1.119-2.5-2.5v-76.21c0-1.381 1.119-2.5 2.5-2.5s2.5 1.119 2.5 2.5v73.71h8.667c1.381 0 2.5 1.119 2.5 2.5s-1.119 2.5-2.5 2.5z" fill="#76ffba"/></g></g></g></svg>